<svg xmlns="http://www.w3.org/2000/svg" width="22" height="20" viewBox="0 0 22 20"><g><g><path fill="#fff" d="M0 .814c0-.449.366-.816.814-.816h2.943c.367 0 .692.245.787.598l3.323 12.038h9.062l3.011-6.929H9.902a.817.817 0 0 1 0-1.631h11.286a.81.81 0 0 1 .678.366c.15.233.177.517.068.776l-3.717 8.56a.815.815 0 0 1-.746.488H7.257a.814.814 0 0 1-.787-.597L3.147 1.629H.814A.817.817 0 0 1 0 .814zM4.639 18.15c0-1.019.827-1.847 1.845-1.847a1.848 1.848 0 0 1 0 3.696 1.848 1.848 0 0 1-1.845-1.849zm11.544.123a1.85 1.85 0 0 1 1.709-1.97 1.85 1.85 0 0 1 1.52 3.057c-.327.38-.774.598-1.263.639h-.135a1.85 1.85 0 0 1-1.831-1.726z"/></g></g></svg>