<svg xmlns="http://www.w3.org/2000/svg" width="22" height="18" viewBox="0 0 22 18"><g><g><path fill="#a3bbc8" d="M20.72 10.158c-.87 1.322-3.1 3.387-4.746 4.754-1.696 1.407-3.933 3.087-4.965 3.087-1.015 0-3.26-1.682-4.965-3.093-1.66-1.374-3.902-3.44-4.763-4.748C.32 8.7-.072 7.361.01 5.82a6.21 6.21 0 0 1 1.848-4.1C2.985.61 4.455-.001 5.999-.001c2.461 0 4.133 1.904 4.937 2.82l.083.094.156-.17C12.055 1.785 13.691 0 16.002 0c1.543 0 3.014.61 4.14 1.72A6.21 6.21 0 0 1 21.99 5.82c.105 1.972-.624 3.354-1.27 4.338zm-.052-4.267c-.135-2.519-2.228-4.57-4.666-4.57-1.729 0-3.057 1.45-3.851 2.317-.479.523-.742.81-1.15.81-.397 0-.632-.268-1.06-.756-.727-.828-2.08-2.37-3.943-2.37-2.438 0-4.531 2.05-4.666 4.57-.066 1.24.259 2.331 1.054 3.537.624.948 2.407 2.716 4.437 4.402 2.418 2.01 3.846 2.808 4.188 2.843.341-.031 1.766-.822 4.172-2.826 2.019-1.682 3.799-3.457 4.43-4.418.807-1.226 1.122-2.285 1.055-3.539z"/></g></g></svg>