<svg xmlns="http://www.w3.org/2000/svg" width="50" height="39" viewBox="0 0 50 39"><g><g><path fill="#a3bbc8" d="M.09 27.826c.088-.18 6.411-12.931 6.582-13.256.171-.325.375-.387.507-.452L42.373.068s.57-.188.965.051a.96.96 0 0 1 .449.645l6.25 37.079s.095.475-.309.804c-.405.33-.903.213-.908.212L.779 29.061c-.014-.003-.382-.075-.622-.387-.24-.311-.157-.666-.067-.848zm35.942-6.02l-10.339 2.159 20.05 11.145zM2.736 26.924l17.833-3.714-12.522-6.983zM23.31 22.64l12.372-2.583L41.24 2.468 9.71 15.055zM42.487 5.133l-4.903 15.52 9.78 13.397zM22.95 24.537l-17.523 3.65 38.05 7.76z"/></g></g></svg>