<svg xmlns="http://www.w3.org/2000/svg" width="20" height="21" viewBox="0 0 20 21"><g><g><path fill="#fff" d="M2.146 4.88A2.144 2.144 0 0 1 0 2.736C0 1.548.96.589 2.146.589c1.187 0 2.146.959 2.146 2.146 0 1.186-.96 2.146-2.146 2.146zm0 7.87A2.145 2.145 0 0 1 0 10.603c0-1.186.96-2.145 2.146-2.145 1.187 0 2.146.959 2.146 2.145 0 1.187-.96 2.147-2.146 2.147zm0 7.868A2.144 2.144 0 0 1 0 18.472c0-1.187.96-2.146 2.146-2.146 1.187 0 2.146.96 2.146 2.146 0 1.187-.96 2.146-2.146 2.146zM10.014 4.88a2.144 2.144 0 0 1-2.146-2.146c0-1.187.96-2.146 2.146-2.146 1.187 0 2.146.959 2.146 2.146 0 1.186-.959 2.146-2.146 2.146zm0 7.869a2.145 2.145 0 0 1-2.146-2.147c0-1.186.96-2.145 2.146-2.145 1.187 0 2.146.959 2.146 2.145 0 1.187-.959 2.147-2.146 2.147zm0 7.868a2.144 2.144 0 0 1-2.146-2.146c0-1.187.96-2.146 2.146-2.146 1.187 0 2.146.96 2.146 2.146 0 1.187-.959 2.146-2.146 2.146zM17.883 4.88a2.144 2.144 0 0 1-2.146-2.146c0-1.187.96-2.146 2.146-2.146 1.187 0 2.146.959 2.146 2.146 0 1.186-.96 2.146-2.146 2.146zm0 7.869a2.145 2.145 0 0 1-2.146-2.147c0-1.186.96-2.145 2.146-2.145 1.187 0 2.146.959 2.146 2.145 0 1.187-.96 2.147-2.146 2.147zm0 7.868a2.144 2.144 0 0 1-2.146-2.146c0-1.187.96-2.146 2.146-2.146 1.187 0 2.146.96 2.146 2.146 0 1.187-.96 2.146-2.146 2.146z"/></g></g></svg>